<?xml version="1.0" encoding="iso-8859-1"?>
<!-- Generator: Adobe Illustrator 17.1.0, SVG Export Plug-In . SVG Version: 6.00 Build 0)  -->
<!DOCTYPE svg PUBLIC "-//W3C//DTD SVG 1.1//EN" "http://www.w3.org/Graphics/SVG/1.1/DTD/svg11.dtd">
<svg version="1.1" id="Capa_1" xmlns="http://www.w3.org/2000/svg" xmlns:xlink="http://www.w3.org/1999/xlink" x="0px" y="0px"
	 viewBox="0 0 481.19 481.19" style="enable-background:new 0 0 481.19 481.19;" xml:space="preserve">
<path d="M417.556,334.859l-4.085-4.26c33.581-48.844,67.719-114.765,67.719-161.002c0-39.039-14.664-74.909-41.289-101
	c-26.14-25.616-61.453-39.723-99.435-39.723c-37.701,0-73.481,15.011-99.824,41.536c-26.946-28.278-58.977-41.536-99.919-41.536
	c-37.669,0-73.003,14.527-99.492,40.904C14.643,96.256,0,131.706,0,169.598c0,46.666,35.392,113.316,70.244,162.773l-8.13,8.361
	c-14.351,14.745-14.19,38.577,0.359,53.126c7.375,7.375,17.062,11.062,26.748,11.061c9.684,0,19.368-3.686,26.738-11.056
	l2.453-2.449c10.936,11.36,21.275,20.639,30.817,27.644c28.822,21.159,62.649,33.258,92.927,33.258c0.223,0,0.447-0.001,0.67-0.002
	c29.946-0.177,63.483-12.459,92.013-33.697c9.419-7.012,19.597-16.277,30.339-27.607l0.265,0.267
	c7.144,7.145,16.642,11.079,26.746,11.079c10.103,0,19.601-3.934,26.745-11.078c14.791-14.79,14.349-38.367-1.051-56.062
	C417.776,335.094,417.667,334.976,417.556,334.859z M20,169.598c0-66.567,54.156-120.724,120.724-120.724
	c35.314,0,62.882,11.487,86.045,35.989l-27.724,28.909c-15.984-17.625-33.208-24.898-58.32-24.898
	C95.458,88.875,60,124.333,60,169.598c0,21.51,17.116,62.607,43.604,104.701c3.007,4.779,6.115,9.538,9.273,14.225l-28.439,29.249
	C45.054,261.234,20,203.949,20,169.598z M127.131,273.865c-2.239-3.382-4.445-6.795-6.599-10.218
	C92.684,219.394,80,183.874,80,169.598c0-34.051,26.673-60.724,60.724-60.724c20.868,0,32.922,5.557,46.024,21.227
	c-5.808,10.559-8.849,22.48-8.713,34.833c0.17,15.317,5.189,29.87,14.289,41.882L127.131,273.865z M76.616,379.716
	c-6.856-6.856-6.932-18.086-0.166-25.038l12.599-12.958c0.063-0.044,0.128-0.082,0.19-0.127c1.011-0.735,1.833-1.63,2.479-2.618
	l121.346-124.799c0.005-0.005,0.009-0.011,0.014-0.016c0.005-0.005,0.011-0.01,0.016-0.015l42.305-43.893
	c3.833-3.977,3.716-10.307-0.261-14.14c-3.976-3.832-10.307-3.716-14.14,0.261l-34.52,35.816
	c-12.749-19.367-10.911-45.896,5.691-63.208l33.878-35.326c0.104-0.069,0.205-0.145,0.307-0.219c0.17-0.122,0.338-0.244,0.501-0.377
	c0.031-0.025,0.064-0.045,0.094-0.071c0.08-0.066,0.149-0.14,0.226-0.209c0.14-0.125,0.28-0.249,0.414-0.383
	c0.131-0.13,0.252-0.265,0.374-0.4c0.072-0.08,0.149-0.151,0.218-0.233c1.36-1.61,2.759-3.177,4.191-4.705l1.179-1.229
	c0.006-0.006,0.01-0.013,0.016-0.018c22.715-23.562,53.949-36.935,86.898-36.935c68.824,0,120.724,51.9,120.724,120.724
	c0,33.988-24.045,90.511-61.859,146.256l-28.358-29.572c2.568-3.928,5.099-7.898,7.555-11.877
	c25.916-41.988,42.662-83.128,42.662-104.808c0-22.491-8.141-43.018-22.923-57.8c-14.782-14.782-35.31-22.923-57.801-22.923
	c-23.719,0-46.118,10.362-61.508,28.442l-9.244,9.632c-3.824,3.985-3.694,10.315,0.291,14.139c3.514,3.372,8.848,3.665,12.682,0.957
	c6.027,7.762,9.406,17.191,9.63,27.247c0.285,12.78-4.544,24.788-13.604,33.817l-176.89,176.605
	C94.872,386.666,83.565,386.666,76.616,379.716z M298.554,210.765c9.25-11.941,14.101-26.533,13.758-41.918
	c-0.343-15.399-5.849-29.773-15.639-41.295c11.442-11.91,27.185-18.678,43.794-18.678c35.186,0,60.724,25.538,60.724,60.724
	c0,14.456-12.417,50.132-39.682,94.304c-1.557,2.523-3.149,5.042-4.758,7.55L298.554,210.765z M242.725,267.301l66.136,66.815
	c-8.14,8.724-15.722,15.81-21.794,20.33c-10.952,8.153-27.7,17.872-45.295,17.872c-17.378,0-34.173-9.651-45.202-17.748
	c-6.009-4.411-13.491-11.268-21.532-19.69L242.725,267.301z M322.896,402.574c-25.185,18.748-54.413,29.588-80.188,29.74
	c-0.189,0.001-0.374,0.002-0.563,0.002c-26.103,0-55.621-10.69-81.08-29.38c-8.569-6.29-18.313-15.075-28.493-25.658l28.309-28.263
	c8.778,9.176,16.922,16.587,23.855,21.676c13.438,9.866,34.243,21.625,57.037,21.625c23.072,0,43.861-11.871,57.238-21.829
	c6.956-5.178,15.128-12.751,23.932-22.147l28.155,28.444C341.04,387.417,331.395,396.247,322.896,402.574z M404.791,377.136
	c-3.366,3.366-7.842,5.22-12.603,5.22c-4.761,0-9.237-1.854-12.567-5.184L256.878,253.171l27.909-27.864l66.254,69.089
	c0.01,0.01,0.02,0.021,0.03,0.031l51.871,54.091C411.373,358.326,412.123,369.804,404.791,377.136z"/>
<g>
</g>
<g>
</g>
<g>
</g>
<g>
</g>
<g>
</g>
<g>
</g>
<g>
</g>
<g>
</g>
<g>
</g>
<g>
</g>
<g>
</g>
<g>
</g>
<g>
</g>
<g>
</g>
<g>
</g>
</svg>
