<svg id="Capa_1" enable-background="new 0 0 505.43 505.43" height="512" viewBox="0 0 505.43 505.43" width="512" xmlns="http://www.w3.org/2000/svg"><g><path d="m237.547 207.945.025-.534c-.061-2.127-.062-4.276-.002-6.397-.579-41.549-37.342-78.304-79.079-76.556-59.516-.582-104.945 54.951-98.321 114.609 3.66 44.571 29.404 84.805 65.864 108.397l88.078-87.449c14.409-14.307 22.513-32.313 23.435-52.07zm-29.993-.914c-.678 12.101-5.582 22.761-14.58 31.694l-69.206 68.711c-32.562-32.449-50.787-91.923-13.515-132.357 32.247-33.777 92.872-26.611 97.301 26.223-.038 1.901-.038 3.823 0 5.729z"/><path d="m459.563 112.385c-50.009-55.815-152.17-65.506-206.937-12.096-54.76-53.416-156.935-43.704-206.93 12.082-81.746 81.09-46.676 229.296 48.716 285.936 44.488 29.117 97.762 42.151 130.871 42.151h54.881c112.794-1.243 229.05-95.456 225.171-212.344.759-43.51-15.491-84.595-45.772-115.729zm15.773 115.389-.004.224c3.541 100.807-98.79 181.248-195.572 182.46h-54.478c-28.7 0-75.275-11.557-114.63-37.376-78.818-45.788-112.106-172.201-43.392-239.853 22.578-24.311 56.308-38.549 90.933-38.55 33.12-.114 63.557 13.239 82.824 37.013 0 0 11.604 14.177 11.604 14.177l11.608-14.174c18.66-22.784 46.629-35.906 78.756-36.949 73.44-3.512 134.842 61.249 132.351 133.028z"/><path d="m263.217 274.035-10.595-10.57c-24.19 24.293-78.532 77.838-99.516 100.257l22.617 7.426c17.758 5.83 36.285 9.311 49.559 9.311h54.681c13.274 0 31.801-3.48 49.559-9.311l22.64-7.434c-13.577-14.779-74.996-75.714-88.945-89.679zm16.746 76.423h-54.681c-3.812 0-9.193-.475-15.704-1.607 12.19-12.195 28.528-28.516 43.044-43.005 12.817 12.793 30.067 30.02 43.046 43.005-6.511 1.132-11.893 1.607-15.705 1.607z"/><path d="m318.459 129.579c-29.695 10.777-48.752 37.614-50.788 71.226.063 2.191.066 4.41.003 6.606.801 19.947 8.919 38.172 23.461 52.604l88.073 87.444c36.461-23.565 62.2-63.78 65.869-108.371 8.053-71.783-58.648-133.02-126.618-109.509zm96.724 106.997c-2.202 26.2-15.059 52.779-33.701 70.865l-69.21-68.716c-8.998-8.934-13.902-19.594-14.58-31.694.037-1.834.039-3.683.004-5.514 7.801-78.469 125.87-53.471 117.487 35.059z"/></g></svg>